<svg xmlns="http://www.w3.org/2000/svg" xmlns:xlink="http://www.w3.org/1999/xlink" height="600" preserveAspectRatio="xMidYMid meet" viewBox="0 0 512 512" width="800">
<g fill="#68ac4b">
<svg class="icon" preserveAspectRatio="xMidYMid meet" version="1.0" viewBox="0 0 512 512">
<g>
<svg height="512" preserveAspectRatio="xMidYMid meet" width="512">
<svg version="1.1" viewBox="0 0 938 1558">
<path d="M0 0 C1 0.4 2 0.9 3 1.4 C8.7 4.2 8.7 4.2 11 6 C12.5 10.5 11.8 14.9 11.3 19.5 C11.2 21.3 11 23.1 10.8 24.8 C10.7 25.8 10.6 26.7 10.5 27.7 C8 54.1 6.3 80.5 5 107 C5 107.7 4.9 108.5 4.9 109.3 C2.8 150.1 3.1 191.4 5.7 232.2 C6 236.8 6 241.4 6 246 C6.7 246 7.4 246.1 8.2 246.1 C70.7 249.3 133.2 262.1 190 289 C191 289.4 191.9 289.9 192.9 290.4 C217.3 302 239.8 316.3 261 333 C261.8 333.7 262.7 334.3 263.6 335 C269.6 339.7 275.2 344.8 280.8 350 C283.6 352.7 286.5 355.2 289.4 357.8 C292.9 360.9 296 364.1 299 367.7 C301 370 303 372.2 305.1 374.3 C312.7 382.4 319.4 391.1 326 400 C326.5 400.7 327 401.3 327.5 402 C339.8 418.6 350.3 436.5 359.1 455.1 C360 457 361 458.9 361.9 460.8 C397.1 531.8 403.9 615.1 397 693 C396.9 693.7 396.9 694.4 396.8 695.1 C391.9 750.5 381.2 805.1 370.6 859.7 C360.5 911.9 352 963.8 347.9 1016.9 C347.8 1017.9 347.7 1018.9 347.6 1020 C344.3 1061.7 343.7 1103.5 343.9 1145.3 C343.9 1151.1 343.9 1156.8 343.9 1162.5 C343.9 1177 344 1191.5 344 1205.9 C344 1221.6 344.1 1237.3 344.1 1253 C344.1 1258.7 344.1 1264.3 344.2 1270 C344.2 1291 344.2 1311.9 343.1 1332.9 C343.1 1333.7 343 1334.4 343 1335.2 C341.2 1368.2 337.4 1401.8 326 1433 C325.7 1433.8 325.4 1434.6 325.1 1435.4 C309.2 1479.7 277.3 1509.3 235.6 1529.8 C222.6 1535.7 208.8 1539.8 194.8 1542.8 C193.9 1543 193 1543.2 192 1543.4 C176.7 1546.5 161.3 1547.4 145.6 1547.3 C144.8 1547.3 143.9 1547.3 143 1547.3 C118.9 1547.2 95.5 1544.4 72 1539 C70.9 1538.8 69.9 1538.5 68.8 1538.3 C41.4 1531.8 14.8 1522.4 -11 1511 C-12.1 1510.5 -13.1 1510.1 -14.2 1509.6 C-29.5 1502.8 -44.4 1495.3 -59 1487 C-59.9 1486.5 -60.8 1486 -61.7 1485.5 C-82.4 1473.6 -102.6 1460.9 -121.8 1446.6 C-124.1 1444.9 -126.4 1443.2 -128.7 1441.6 C-138.8 1434.2 -148.6 1426.6 -158.2 1418.5 C-160.7 1416.4 -163.3 1414.4 -165.8 1412.3 C-170.8 1408.2 -175.5 1403.9 -180.2 1399.6 C-182.4 1397.5 -184.7 1395.5 -186.9 1393.6 C-196.9 1384.9 -206.4 1375.8 -215.7 1366.4 C-217.4 1364.7 -219.1 1363 -220.8 1361.4 C-225.8 1356.3 -230.8 1351.2 -235.5 1345.8 C-238 1342.8 -240.7 1340 -243.4 1337.2 C-248 1332.2 -252.5 1327.1 -256.8 1321.8 C-258.8 1319.2 -260.9 1316.8 -263 1314.3 C-269.2 1307 -275.1 1299.6 -281 1292 C-281.6 1291.2 -282.2 1290.4 -282.8 1289.6 C-291.7 1278.2 -300.3 1266.6 -308.3 1254.5 C-310.1 1251.8 -311.9 1249.1 -313.8 1246.5 C-330.3 1222.1 -345 1196.9 -359 1171 C-359.9 1169.3 -360.8 1167.6 -361.8 1165.9 C-379.9 1132.4 -394.3 1096.9 -407 1061 C-407.4 1060 -407.4 1060 -407.7 1058.9 C-429.3 997.9 -442.4 934.4 -448.2 870 C-448.3 869.1 -448.4 868.2 -448.5 867.3 C-450.6 843.8 -451.2 820.5 -451.2 797 C-451.3 796.3 -451.3 795.5 -451.3 794.8 C-451.3 769.9 -450.6 745.2 -448.2 720.4 C-448 718 -447.8 715.6 -447.6 713.3 C-444.1 674.6 -437.3 636.7 -428 599 C-436.1 603 -444.2 607.1 -452.3 611.4 C-471.5 621.6 -491.3 630.4 -511.4 638.7 C-512.1 639 -512.9 639.3 -513.7 639.6 C-515.8 640.5 -517.9 641.4 -520.1 642.3 C-521 642.7 -521 642.7 -522 643.1 C-525 644.3 -527.9 645.3 -531 646 C-529.2 567.9 -508.2 487.5 -409 300 C-408.3 299.2 -408.3 299.2 -407.6 298.3 C-397.8 286.5 -387.4 275.3 -376.5 264.3 C-375.2 263 -375.2 263 -373.9 261.6 C-367.9 255.7 -361.6 250.3 -355 245 C-353.8 244 -352.5 242.9 -351.3 241.8 C-277.2 179.3 -178.2 156.6 -83.1 159.3 C-81.9 159.3 -80.6 159.4 -79.4 159.4 C-66.9 159.9 -54.4 160.9 -42 162 C-42.1 161.2 -42.1 161.2 -42.2 160.3 C-46.4 126.7 -50 93 -53.2 59.2 C-53.4 56.4 -53.7 53.5 -54 50.7 C-54.4 46.1 -54.8 41.6 -55.3 37 C-55.4 35.3 -55.6 33.7 -55.7 32 C-56.5 23.6 -57.2 15.4 -57 7 C-39.8 -1.6 -18.7 -8.7 0 0 Z M-42 169 C-42.4 169.7 -42.7 170.5 -43.1 171.3 C-54.2 194.5 -65.5 217.5 -78.7 239.6 C-79.2 240.5 -79.8 241.5 -80.4 242.4 C-80.9 243.3 -81.4 244.1 -81.9 245 C-83.2 246.9 -83.2 246.9 -83 249 C-78.7 248.7 -74.3 248.5 -70 248.2 C-67.1 248 -64.2 247.8 -61.3 247.6 C-58.5 247.5 -55.8 247.3 -53 247.1 C-51.6 247 -50.2 247 -48.8 246.9 C-46.8 246.8 -44.8 246.6 -42.8 246.5 C-41.1 246.4 -41.1 246.4 -39.3 246.3 C-36.1 246 -33.1 245.6 -30 245 C-31.5 232.3 -33.3 219.6 -35 207 C-35.5 203.6 -36 200.2 -36.4 196.9 C-36.7 194.7 -37 192.5 -37.3 190.4 C-37.5 188.9 -37.5 188.9 -37.8 187.3 C-38.6 181.2 -39.7 175.1 -41 169 C-41.3 169 -41.7 169 -42 169 Z " fill="#FECF17" transform="translate(535,7)"/>
<path d="M0 0 C1 0.4 2 0.9 3 1.4 C8.7 4.2 8.7 4.2 11 6 C12.5 10.5 11.8 14.9 11.3 19.5 C11.2 21.3 11 23.1 10.8 24.8 C10.7 25.8 10.6 26.7 10.5 27.7 C8 54.1 6.3 80.5 5 107 C5 107.7 4.9 108.5 4.9 109.3 C2.9 147.5 3.4 186 4.8 224.2 C4.9 225.8 4.9 225.8 4.9 227.4 C5.3 239.4 6.2 251.2 8 263.1 C9 269.6 9 275.2 9 282 C-1.2 282 -11.5 282 -22 282 C-24 276 -25.7 270.4 -26.8 264.3 C-27 263 -27 263 -27.3 261.7 C-27.8 259 -28.3 256.3 -28.8 253.6 C-28.9 252.6 -29.1 251.7 -29.3 250.7 C-34 224.3 -37.7 197.7 -41 171 C-43.1 173.1 -43.9 174.6 -45.1 177.3 C-45.5 178.2 -45.9 179.1 -46.4 180 C-47.1 181.4 -47.1 181.4 -47.8 182.9 C-57.7 203.9 -68.4 224.2 -80.3 244.1 C-82 246.9 -83.6 249.8 -85.2 252.6 C-93.1 266 -101.4 279 -110 292 C-111.2 293.8 -112.4 295.6 -113.6 297.4 C-132.5 326.1 -152.8 353.6 -174.5 380.2 C-175.8 381.8 -177.1 383.4 -178.4 385 C-186.7 395.1 -195.2 405.1 -204 414.8 C-205.8 416.8 -207.6 418.8 -209.3 420.8 C-216.8 429.4 -224.6 437.7 -232.8 445.7 C-235.4 448.4 -237.8 451.2 -240.3 454.1 C-244.5 458.8 -249 463.2 -253.8 467.2 C-257.3 470.3 -260.7 473.6 -264 477 C-267.9 480.9 -271.8 484.7 -276 488.2 C-278.5 490.4 -280.9 492.6 -283.3 494.9 C-287.8 498.9 -292.4 502.8 -297.1 506.6 C-299.7 508.8 -302.3 511 -304.9 513.2 C-311.9 519.3 -319.2 525 -326.6 530.6 C-330.4 533.5 -334.1 536.4 -337.8 539.3 C-345.9 545.7 -354.2 551.8 -362.8 557.5 C-365.2 559.1 -367.6 560.8 -370 562.4 C-387.4 574.1 -405 585.2 -423.2 595.4 C-425.8 596.9 -428.4 598.4 -431 599.9 C-511.2 646 -511.2 646 -531 646 C-529.2 567.9 -508.2 487.5 -409 300 C-408.3 299.2 -408.3 299.2 -407.6 298.3 C-397.8 286.5 -387.4 275.3 -376.5 264.3 C-375.2 263 -375.2 263 -373.9 261.6 C-367.9 255.7 -361.6 250.3 -355 245 C-353.8 244 -352.5 242.9 -351.3 241.8 C-277.2 179.3 -178.2 156.6 -83.1 159.3 C-81.9 159.3 -80.6 159.4 -79.4 159.4 C-66.9 159.9 -54.4 160.9 -42 162 C-42.1 161.2 -42.1 161.2 -42.2 160.3 C-46.4 126.7 -50 93 -53.2 59.2 C-53.4 56.4 -53.7 53.5 -54 50.7 C-54.4 46.1 -54.8 41.6 -55.3 37 C-55.4 35.3 -55.6 33.7 -55.7 32 C-56.5 23.6 -57.2 15.4 -57 7 C-39.8 -1.6 -18.7 -8.7 0 0 Z " fill="#4FED00" transform="translate(535,7)"/>
<path d="M0 0 C2 2 2 2 2.2 5.6 C2.1 12.2 1.2 18.9 0.4 25.5 C-1 37.5 -2.3 49.6 -3.2 61.8 C-3.3 62.7 -3.3 63.7 -3.4 64.8 C-4.7 84.2 -5.2 103.7 -5.2 123.2 C-5.2 124.3 -5.2 125.4 -5.2 126.5 C-5.1 170.5 -3.2 214.8 3.4 258.3 C3.9 261.6 4.4 264.8 4.9 268.1 C10.5 306.8 18.1 345.3 30.2 382.5 C31.1 385.4 32 388.3 32.9 391.2 C43.5 425.6 55.9 459.3 71 492 C71.6 493.3 72.2 494.7 72.8 496 C99.4 554 132.4 608.3 171 659 C171.4 659.5 171.8 660 172.2 660.6 C180.1 671 188.4 681.2 196.9 691.2 C199.8 694.5 202.5 697.9 205.2 701.3 C210.2 707.4 215.6 713 221 718.7 C223.6 721.5 226.2 724.3 228.8 727.2 C234.8 733.8 241.1 740.3 247.5 746.6 C249.2 748.3 250.9 750 252.6 751.7 C257.7 756.8 262.8 761.8 268.3 766.5 C271 768.9 273.7 771.4 276.3 773.9 C281.1 778.4 286.1 782.6 291.2 786.7 C293.7 788.7 296.1 790.8 298.5 792.9 C306.1 799.4 313.9 805.4 321.9 811.4 C323.9 812.9 325.9 814.5 327.9 816 C375.1 851.8 427.8 883.5 484.3 902.1 C487.4 903.1 490.4 904.2 493.5 905.2 C507.5 910.1 521.4 914.1 536 917 C536.9 917.2 537.8 917.4 538.7 917.6 C578.9 925.9 623.6 926.6 662.8 913 C665.7 912.1 667.9 911.8 671 912 C643.6 936.2 586.9 933.8 552.9 931.8 C536.3 930.6 520.1 927.7 504 924 C502.9 923.8 501.9 923.5 500.8 923.3 C473.4 916.8 446.8 907.4 421 896 C419.4 895.3 419.4 895.3 417.8 894.6 C402.5 887.8 387.6 880.3 373 872 C371.7 871.2 371.7 871.2 370.3 870.5 C349.6 858.6 329.4 845.9 310.2 831.6 C307.9 829.9 305.6 828.2 303.3 826.6 C293.2 819.2 283.4 811.6 273.8 803.5 C271.3 801.4 268.7 799.4 266.2 797.3 C261.2 793.2 256.5 788.9 251.8 784.6 C249.6 782.5 247.3 780.5 245.1 778.6 C235.1 769.9 225.6 760.8 216.3 751.4 C214.6 749.7 212.9 748 211.2 746.4 C206.2 741.3 201.2 736.2 196.5 730.8 C194 727.8 191.3 725 188.6 722.2 C184 717.2 179.5 712.1 175.2 706.8 C173.2 704.2 171.1 701.8 169 699.3 C162.8 692 156.9 684.6 151 677 C150.1 675.8 150.1 675.8 149.2 674.6 C140.3 663.2 131.7 651.6 123.7 639.5 C121.9 636.8 120.1 634.1 118.2 631.5 C101.7 607.1 87 581.9 73 556 C72.1 554.3 71.2 552.6 70.2 550.9 C52.1 517.4 37.7 481.9 25 446 C24.6 445 24.6 445 24.3 443.9 C2.7 382.9 -10.4 319.4 -16.2 255 C-16.3 254.1 -16.4 253.2 -16.5 252.3 C-18.6 228.8 -19.2 205.5 -19.2 182 C-19.3 181.3 -19.3 180.5 -19.3 179.8 C-19.3 154.9 -18.6 130.2 -16.2 105.4 C-16 103 -15.8 100.6 -15.6 98.3 C-12.6 65.3 -7.8 32.2 0 0 Z " fill="#FFB317" transform="translate(103,622)"/>
<path d="M0 0 C1.1 0.5 2.2 1 3.3 1.6 C11.1 5.5 17.5 10.2 24 16 C25 16.8 26 17.7 27 18.6 C34.4 25.1 40.9 32.2 47 40 C47.6 40.8 47.6 40.8 48.3 41.6 C72.7 73.3 89.4 113.7 89.3 154 C89.3 156.1 89.3 158.1 89.4 160.2 C89.4 175.1 86.2 190.2 75.7 201.5 C67.4 209 59.5 211.5 48.4 211.2 C22.6 209.4 2.5 190.1 -14 172 C-18.4 166.9 -22.3 161.6 -26 156 C-26.5 155.3 -26.9 154.6 -27.4 153.9 C-50.1 119.5 -68.6 73.7 -60.9 31.8 C-58.2 19 -52.9 7 -41.8 -0.5 C-28.8 -8.2 -13.1 -6.4 0 0 Z " fill="#FDE431" transform="translate(779,426)"/>
<path d="M0 0 C1 0.4 2 0.9 3 1.4 C8.7 4.2 8.7 4.2 11 6 C12.5 10.5 11.8 14.9 11.3 19.5 C11.2 21.3 11 23.1 10.8 24.8 C10.7 26.3 10.7 26.3 10.5 27.7 C8 54.1 6.3 80.5 5 107 C5 107.7 4.9 108.5 4.9 109.3 C2.9 147.5 3.4 186 4.8 224.2 C4.8 225.2 4.9 226.3 4.9 227.4 C5.3 239.4 6.2 251.2 8 263.1 C9 269.6 9 275.2 9 282 C-1.2 282 -11.5 282 -22 282 C-24 276 -25.7 270.4 -26.8 264.3 C-27 263.4 -27.1 262.6 -27.3 261.7 C-27.8 259 -28.3 256.3 -28.8 253.6 C-28.9 252.6 -29.1 251.7 -29.3 250.7 C-32.1 234.7 -34.6 218.7 -36.9 202.6 C-37 201.6 -37.2 200.6 -37.3 199.5 C-39 187.9 -40.4 176.2 -41.3 164.5 C-41.6 160.4 -42.1 156.4 -42.9 152.3 C-44.4 145.5 -45 138.5 -45.8 131.6 C-45.9 130 -46.1 128.5 -46.3 127 C-46.7 122.9 -47.1 118.9 -47.5 114.8 C-47.8 112.3 -48.1 109.8 -48.3 107.3 C-50.7 85 -53 62.7 -55 40.4 C-55.1 39.3 -55.2 38.2 -55.3 37 C-55.6 33.8 -55.9 30.6 -56.2 27.4 C-56.3 26.5 -56.4 25.5 -56.4 24.6 C-57 18.7 -57.1 12.9 -57 7 C-39.8 -1.6 -18.7 -8.7 0 0 Z " fill="#432B04" transform="translate(535,7)"/>
<path d="M0 0 C0.9 3 1 5 0.3 8.1 C0.1 8.9 -0.1 9.7 -0.3 10.5 C-0.5 11.4 -0.7 12.3 -0.9 13.2 C-1.2 14.1 -1.4 15 -1.6 16 C-6.3 34.5 -12.5 52.5 -20 70 C-20.3 70.8 -20.7 71.6 -21 72.4 C-39.1 114.9 -65.8 153.6 -96.9 187.6 C-98.2 189.2 -99.6 190.7 -101 192.2 C-106 197.9 -111.2 203.3 -116.6 208.7 C-117.3 209.4 -118 210.1 -118.7 210.8 C-122.8 214.9 -126.9 218.7 -131.2 222.5 C-133.4 224.4 -135.5 226.3 -137.6 228.2 C-142.7 232.8 -147.9 237 -153.3 241.1 C-155.8 243 -158.2 244.9 -160.6 246.9 C-169.6 254.3 -179 261 -188.8 267.5 C-190.7 268.8 -192.7 270.2 -194.7 271.5 C-213.9 284.7 -234.3 296.2 -255 307 C-256 307.5 -257 308.1 -258.1 308.6 C-279.4 319.7 -301.3 329.8 -324 337.9 C-327.1 339 -327.1 339 -330.2 340.7 C-333 342 -333 342 -336 341 C-335.5 340.7 -334.9 340.4 -334.4 340.1 C-300 320.1 -267 297.9 -236 273 C-235 272.2 -235 272.2 -234.1 271.4 C-222.2 261.9 -210.5 252.3 -199.2 242 C-197.3 240.2 -195.2 238.5 -193.2 236.7 C-184.6 229.2 -176.3 221.4 -168.3 213.2 C-165.6 210.6 -162.7 208.1 -159.9 205.6 C-155.5 201.8 -151.6 197.7 -147.8 193.3 C-144.7 189.7 -141.4 186.3 -138 183 C-134.1 179.2 -130.4 175.3 -126.8 171.1 C-125 168.9 -123 166.8 -121.1 164.7 C-116.3 159.6 -111.8 154.4 -107.4 149 C-104.6 145.5 -101.6 142.1 -98.6 138.7 C-93 132.3 -87.7 125.7 -82.5 118.9 C-80.9 116.9 -79.3 114.8 -77.7 112.8 C-69.2 102 -61 91.1 -53 80 C-52.5 79.4 -52.1 78.7 -51.6 78 C-36.4 57.1 -22.1 35.4 -8.7 13.3 C-5.9 8.8 -3 4.4 0 0 Z " fill="#FEB214" transform="translate(449,260)"/>
<path d="M0 0 C0.3 0 0.7 0 1 0 C1 2.3 1 4.6 1 7 C-7.3 11.2 -15.7 15.3 -24.2 19.4 C-25.2 19.8 -26.2 20.3 -27.2 20.8 C-31.8 23 -36.4 25.2 -41 27.4 C-52.2 32.6 -63.2 38.1 -74 44 C-75.1 44.6 -76.2 45.2 -77.3 45.8 C-114.2 65.8 -149.9 87.8 -183.1 113.6 C-185.8 115.6 -188.5 117.6 -191.2 119.6 C-196.6 123.6 -201.8 127.8 -206.9 132.1 C-210.7 135.2 -214.5 138.2 -218.4 141.2 C-225.8 146.9 -232.7 153.1 -239.5 159.6 C-242 161.9 -244.5 164.1 -247.1 166.3 C-251.1 169.8 -255.1 173.4 -259 177 C-259.9 177.8 -260.8 178.6 -261.7 179.5 C-270.7 187.7 -279.4 196.2 -288 204.8 C-290.4 207.3 -292.8 209.7 -295.2 212.1 C-296.8 213.6 -298.3 215.2 -299.9 216.8 C-300.6 217.5 -301.3 218.2 -302.1 218.9 C-306 222.9 -309.8 226.9 -313.4 231.2 C-316.2 234.4 -319.1 237.4 -322 240.5 C-326.8 245.6 -331.5 250.7 -336 256 C-336.9 257.1 -337.8 258.1 -338.8 259.2 C-345 266.4 -351 273.6 -357 281 C-358 282.2 -359 283.5 -360.1 284.7 C-376.8 305.3 -393 326.2 -408.4 347.7 C-410.1 350.1 -411.8 352.5 -413.6 354.9 C-414.1 355.7 -414.7 356.5 -415.3 357.4 C-416.5 358.9 -417.6 360.4 -418.7 362 C-421.5 365.9 -424.3 369.9 -427 374 C-428.4 369.7 -426.5 367.1 -424.6 363.2 C-424.3 362.4 -423.9 361.6 -423.5 360.8 C-422.3 358.3 -421.1 355.8 -419.9 353.2 C-419.5 352.4 -419.1 351.5 -418.6 350.6 C-412.4 337.7 -405.9 325 -398.5 312.6 C-396.9 309.9 -395.4 307.2 -393.8 304.5 C-371.7 266.2 -345 230.1 -315.3 197.5 C-313.4 195.4 -311.6 193.3 -309.7 191.2 C-306 186.9 -302.1 182.7 -298.1 178.6 C-297.4 177.8 -296.7 177.1 -296 176.3 C-289.2 169.2 -282.5 162.2 -275 155.8 C-272.8 153.8 -270.6 151.7 -268.5 149.5 C-264.5 145.5 -260.3 141.7 -256 138 C-255 137.2 -254.1 136.4 -253.1 135.5 C-245.8 129.2 -238.3 123.2 -230.7 117.3 C-229.1 116.1 -227.5 114.8 -225.9 113.5 C-213 103.5 -199.7 93.8 -186 85 C-185 84.3 -185 84.3 -184 83.7 C-159.6 68 -134.3 54.1 -107.9 41.9 C-106.3 41.1 -104.7 40.4 -103.1 39.6 C-79.8 28.7 -55 20.6 -30.3 13.7 C-27.5 12.8 -24.6 12 -21.8 11.2 C-20.7 10.9 -19.6 10.5 -18.5 10.2 C-16.9 9.7 -16.9 9.7 -15.2 9.2 C-13.1 8.7 -11.1 8.1 -9 7.5 C-8.2 7.2 -7.3 6.9 -6.4 6.7 C-4.3 6.1 -2.1 5.5 0 5 C0 3.3 0 1.7 0 0 Z " fill="#3DD200" transform="translate(493,164)"/>
<path d="M0 0 C8.6 5.4 14.7 12.7 17.5 22.6 C19.5 32.5 17.9 41.6 12.6 50.3 C6.7 58.7 -0.6 63.8 -10.6 66.8 C-22 67.9 -30.7 65.7 -40 59 C-47.1 53.2 -51.2 46 -53 37 C-54 26 -51.8 16.4 -44.7 7.8 C-33.1 -4.5 -15.1 -8.8 0 0 Z " fill="#FFB215" transform="translate(486,1360)"/>
<path d="M0 0 C10.3 7.5 19.1 17.8 21.7 30.6 C22.7 39.4 20.8 48 15.3 55.1 C9.7 60.5 3.8 62.6 -3.9 63 C-14.1 62.8 -22.7 58.2 -30.3 51.6 C-31.2 50.9 -31.2 50.9 -32.1 50.1 C-39.1 43.9 -44.2 34.2 -45.4 24.8 C-45.6 16.3 -44.1 8.1 -38.3 1.6 C-26.8 -7.9 -12.7 -7.9 0 0 Z " fill="#FDE431" transform="translate(707.2890625,354.42578125)"/>
<path d="M0 0 C-6.8 10.9 -17.3 17.4 -29 22 C-29.7 22.3 -30.4 22.6 -31.1 22.9 C-40.4 26.7 -50.3 27.4 -60.2 27.4 C-61.3 27.4 -62.4 27.4 -63.6 27.4 C-72.3 27.2 -79.7 25.9 -88 23 C-89.7 22.6 -91.3 22.2 -93 21.8 C-103.9 18.5 -114.7 10.7 -123 3 C-123.3 2.3 -123.7 1.7 -124 1 C-112.1 0.7 -100.5 1.3 -88.6 2.2 C-74.4 3.2 -60.2 3.6 -46 4 C-45.7 3.3 -45.3 2.7 -45 2 C-45 2.7 -45 3.3 -45 4 C-43.3 3.8 -43.3 3.8 -41.6 3.6 C-37.5 3.2 -33.3 2.7 -29.1 2.3 C-27.4 2.1 -25.6 1.9 -23.8 1.7 C-21.2 1.4 -18.6 1.2 -16 0.9 C-15.2 0.8 -14.4 0.7 -13.6 0.6 C-9 0.1 -4.6 -0.1 0 0 Z " fill="#F99A00" transform="translate(590,285)"/>
<path d="M0 0 C1 0.4 2 0.9 3 1.4 C8.7 4.2 8.7 4.2 11 6 C11.8 8.7 11.8 8.7 12 11 C11.5 10 11.5 10 11 9 C10.2 9.5 9.4 10.1 8.5 10.6 C-4.4 18.9 -17.6 24.5 -33.3 21.3 C-41.2 19.1 -49.1 15.9 -55 10 C-55.3 12.3 -55.7 14.6 -56 17 C-56.3 17 -56.7 17 -57 17 C-57 13.7 -57 10.4 -57 7 C-39.8 -1.6 -18.7 -8.7 0 0 Z " fill="#A8721A" transform="translate(535,7)"/>
<path d="M0 0 C4.5 2.5 7.6 5.7 9.9 10.4 C10.4 15.9 10.6 20.8 8.2 25.9 C3.5 30.9 -0.5 34 -7.4 34.8 C-13.3 34.2 -17.5 32.1 -21.5 27.9 C-25.1 22.3 -26.1 18 -25.1 11.4 C-22.9 5.7 -19.5 2.3 -14.1 -0.6 C-9.1 -2.3 -4.8 -2.2 0 0 Z " fill="#FFB215" transform="translate(406.125,1325.625)"/>
<path d="M0 0 C0.7 1 1.3 2 2 3 C-6.7 9.4 -13.1 11 -24 10 C-28.1 8.7 -31.4 6.4 -35 4 C-34 1 -34 1 -32.3 -0.2 C-22.4 -4.5 -9.6 -5.2 0 0 Z " fill="#CC842F" transform="translate(529,13)"/>
<path d="M0 0 C0.3 0 0.7 0 1 0 C1 2.3 1 4.6 1 7 C-1 8 -3 9 -5 10 C-5.3 9 -5.7 8 -6 7 C-5.3 6.3 -4.7 5.7 -4 5 C-2.7 5 -1.4 5 0 5 C0 3.3 0 1.7 0 0 Z " fill="#60C523" transform="translate(493,164)"/>
<path d="M0 0 C0.7 0.3 1.3 0.7 2 1 C-0.8 4.1 -3 5.9 -7 7 C-8 6.7 -9 6.3 -10 6 C-8.4 5 -6.8 4 -5.1 2.9 C-4.2 2.4 -3.3 1.8 -2.4 1.2 C-1.2 0.6 -1.2 0.6 0 0 Z " fill="#F2B814" transform="translate(123,595)"/>
</svg>
</svg>
</g>
</svg>
</g>
</svg>
