<?xml version="1.0" ?><svg height="32px" version="1.1" viewBox="0 0 32 32" width="32px" xmlns="http://www.w3.org/2000/svg" xmlns:xlink="http://www.w3.org/1999/xlink"><title/><desc/><defs/><g fill="none" fill-rule="evenodd" id="Page-1" stroke="none" stroke-width="1"><g id="letter-O"><g id="Page-1" transform="translate(2.000000, 2.000000)"><path d="M21.4631,14.4261 C21.4631,12.4441 21.1431,10.7261 20.5031,9.2731 C19.8621,7.8201 18.9481,6.7211 17.7601,5.9761 C16.5721,5.2311 15.2081,4.8591 13.6691,4.8591 C12.5731,4.8591 11.5601,5.0651 10.6311,5.4771 C9.7011,5.8901 8.9011,6.4901 8.2291,7.2781 C7.5581,8.0661 7.0291,9.0731 6.6411,10.2981 C6.2531,11.5231 6.0591,12.8991 6.0591,14.4261 C6.0591,15.9651 6.2531,17.3571 6.6411,18.6001 C7.0291,19.8441 7.5771,20.8751 8.2851,21.6941 C8.9931,22.5131 9.8061,23.1251 10.7231,23.5321 C11.6401,23.9381 12.6471,24.1411 13.7431,24.1411 C15.1461,24.1411 16.4361,23.7901 17.6121,23.0881 C18.7881,22.3861 19.7241,21.3031 20.4191,19.8381 C21.1151,18.3721 21.4631,16.5681 21.4631,14.4261 M13.6691,0.5001 C16.4761,0.5001 18.8861,1.0691 20.9001,2.2081 C22.9131,3.3471 24.4371,4.9661 25.4711,7.0661 C26.5051,9.1651 27.0221,11.6311 27.0221,14.4631 C27.0221,16.5561 26.7391,18.4591 26.1731,20.1701 C25.6061,21.8821 24.7571,23.3651 23.6241,24.6211 C22.4911,25.8771 21.1001,26.8381 19.4501,27.5031 C17.8001,28.1671 15.9101,28.5001 13.7801,28.5001 C11.6621,28.5001 9.7661,28.1581 8.0911,27.4751 C6.4161,26.7911 5.0191,25.8281 3.8981,24.5841 C2.7781,23.3411 1.9311,21.8451 1.3591,20.0961 C0.7861,18.3481 0.5001,16.4581 0.5001,14.4261 C0.5001,12.3451 0.7991,10.4371 1.3961,8.7001 C1.9931,6.9641 2.8581,5.4871 3.9911,4.2681 C5.1241,3.0491 6.5031,2.1161 8.1281,1.4701 C9.7531,0.8231 11.6001,0.5001 13.6691,0.5001" fill="#2FBBF4" id="Fill-1"/><path d="M21.4631,14.4261 C21.4631,12.4441 21.1431,10.7261 20.5031,9.2731 C19.8621,7.8201 18.9481,6.7211 17.7601,5.9761 C16.5721,5.2311 15.2081,4.8591 13.6691,4.8591 C12.5731,4.8591 11.5601,5.0651 10.6311,5.4771 C9.7011,5.8901 8.9011,6.4901 8.2291,7.2781 C7.5581,8.0661 7.0291,9.0731 6.6411,10.2981 C6.2531,11.5231 6.0591,12.8991 6.0591,14.4261 C6.0591,15.9651 6.2531,17.3571 6.6411,18.6001 C7.0291,19.8441 7.5771,20.8751 8.2851,21.6941 C8.9931,22.5131 9.8061,23.1251 10.7231,23.5321 C11.6401,23.9381 12.6471,24.1411 13.7431,24.1411 C15.1461,24.1411 16.4361,23.7901 17.6121,23.0881 C18.7881,22.3861 19.7241,21.3031 20.4191,19.8381 C21.1151,18.3721 21.4631,16.5681 21.4631,14.4261 L21.4631,14.4261 Z M13.6691,0.5001 C16.4761,0.5001 18.8861,1.0691 20.9001,2.2081 C22.9131,3.3471 24.4371,4.9661 25.4711,7.0661 C26.5051,9.1651 27.0221,11.6311 27.0221,14.4631 C27.0221,16.5561 26.7391,18.4591 26.1731,20.1701 C25.6061,21.8821 24.7571,23.3651 23.6241,24.6211 C22.4911,25.8771 21.1001,26.8381 19.4501,27.5031 C17.8001,28.1671 15.9101,28.5001 13.7801,28.5001 C11.6621,28.5001 9.7661,28.1581 8.0911,27.4751 C6.4161,26.7911 5.0191,25.8281 3.8981,24.5841 C2.7781,23.3411 1.9311,21.8451 1.3591,20.0961 C0.7861,18.3481 0.5001,16.4581 0.5001,14.4261 C0.5001,12.3451 0.7991,10.4371 1.3961,8.7001 C1.9931,6.9641 2.8581,5.4871 3.9911,4.2681 C5.1241,3.0491 6.5031,2.1161 8.1281,1.4701 C9.7531,0.8231 11.6001,0.5001 13.6691,0.5001 L13.6691,0.5001 Z" id="Stroke-3" stroke="#092933" stroke-linejoin="round"/><path d="M5.0893,5.2896 C6.0643,4.2396 7.2733,3.4236 8.6823,2.8626 C10.1233,2.2906 11.8003,1.9996 13.6693,1.9996" id="Stroke-5" stroke="#FFFFFF" stroke-dasharray="1,2,6,2,3" stroke-linecap="round" stroke-linejoin="round"/><path d="M26.5024,14.0397 C26.4544,15.8437 26.1924,17.5197 25.6984,19.0137 C25.1554,20.6507 24.3334,22.0887 23.2534,23.2867 C22.1774,24.4787 20.8344,25.4047 19.2624,26.0387 C17.6814,26.6767 15.8364,26.9997 13.7794,26.9997 C11.7354,26.9997 9.8844,26.6677 8.2794,26.0127 C6.6844,25.3607 5.3354,24.4307 4.2704,23.2497 C3.2014,22.0637 2.3814,20.6137 1.8344,18.9407 C1.3284,17.3987 1.0624,15.7117 1.0184,13.9317 C1.0144,14.0977 1.0004,14.2587 1.0004,14.4267 C1.0004,16.3957 1.2804,18.2517 1.8344,19.9407 C2.3814,21.6137 3.2014,23.0637 4.2704,24.2497 C5.3354,25.4307 6.6844,26.3607 8.2794,27.0127 C9.8844,27.6677 11.7354,27.9997 13.7794,27.9997 C15.8364,27.9997 17.6814,27.6767 19.2624,27.0387 C20.8344,26.4047 22.1774,25.4787 23.2534,24.2867 C24.3334,23.0887 25.1554,21.6507 25.6984,20.0137 C26.2454,18.3597 26.5224,16.4927 26.5224,14.4637 C26.5224,14.3177 26.5054,14.1837 26.5024,14.0397" fill="#332E09" id="Fill-7" opacity="0.203766325"/></g></g></g></svg>